<svg xmlns="http://www.w3.org/2000/svg" width="414" height="92" viewBox="0 0 414 92">
    <g fill="none" fill-rule="evenodd">
        <path fill="transparent" d="M0 0h414v92H0z"/>
        <path fill="#FFF" d="M414 53.797c-7.626-2.148-16.726-3.557-28.844-3.608-25.093-.098-37.353 5.097-50.33 10.627-13.723 5.824-27.923 11.867-55.874 11.758-27.95-.11-42.092-6.258-55.764-12.202-12.938-5.621-25.131-10.922-50.223-11.027-24.01-.095-35.385 9.06-48.554 19.658C110.955 79.84 95.71 92.116 66.67 92c-29.04-.117-44.174-12.513-57.524-23.448-3.086-2.527-6.07-4.97-9.147-7.234V0h414v53.797z"/>
    </g>
</svg>
